<svg id="Laag_1" data-name="Laag 1" xmlns="http://www.w3.org/2000/svg" viewBox="0 0 256 226"><defs><style>.cls-1{fill:#010101;}</style></defs><title>logo Trainr</title><path class="cls-1" d="M291.26,383.83V366.44h-62.7v17.39H155.15c16.08,20.1,39.71,40.26,68.44,64.74,9.38,8,20,17.05,31,26.7a8,8,0,0,0,10.53,0c11.05-9.67,21.68-18.72,31.06-26.72,28.72-24.47,52.35-44.63,68.43-64.73Z" transform="translate(-131.91 -251.25)"/><path class="cls-1" d="M228.56,333.67v13.76h62.7V333.67h96.18a79.52,79.52,0,0,0,.47-8.66c0-42.05-29.24-73.76-68-73.76a60.58,60.58,0,0,0-37.86,13.09c-10.76,8.32-17.93,18.92-22.14,26.63-4.22-7.71-11.39-18.31-22.15-26.63a60.57,60.57,0,0,0-37.85-13.09c-38.77,0-68,31.71-68,73.76a82.13,82.13,0,0,0,.46,8.66Z" transform="translate(-131.91 -251.25)"/></svg>